<?xml version="1.0" encoding="UTF-8"?>
<svg width="1024" height="1024" viewBox="0 0 1024 1024" xmlns="http://www.w3.org/2000/svg" role="img" aria-label="Cloud upload icon">
  <path d="M 208 456 L 205 472 L 206 495 L 210 511 L 223 535 L 248 558 L 276 570 L 282 609 L 303 645 L 332 669 L 367 682 L 393 684 L 418 680 L 444 669 L 464 654 L 464 514 L 440 512 L 490 427 L 540 512 L 516 514 L 516 649 L 552 658 L 591 658 L 628 648 L 664 626 L 690 642 L 709 648 L 749 647 L 778 634 L 796 618 L 811 594 L 817 574 L 818 549 L 815 533 L 806 512 L 796 499 L 806 470 L 805 437 L 796 414 L 778 392 L 751 376 L 728 371 L 699 374 L 667 391 L 628 367 L 586 357 L 568 331 L 535 302 L 507 288 L 478 280 L 427 280 L 398 288 L 374 300 L 349 319 L 331 339 L 321 354 L 306 389 L 271 392 L 244 405 L 221 428 Z" fill="#223343"/>
</svg>
