<svg width="880" height="220" viewBox="0 0 880 220" fill="none" xmlns="http://www.w3.org/2000/svg">
  <defs>
    <linearGradient id="ld-app-blue" x1="18" y1="18" x2="176" y2="176" gradientUnits="userSpaceOnUse">
      <stop stop-color="#1497FF"/>
      <stop offset="1" stop-color="#0F6FD8"/>
    </linearGradient>
  </defs>
  <g transform="translate(8 18)">
    <path d="M92 0L166 52L92 104L18 52L92 0Z" fill="url(#ld-app-blue)"/>
    <path d="M18 84L92 136L166 84V120L92 172L18 120V84Z" fill="url(#ld-app-blue)"/>
    <rect x="46" y="70" width="92" height="44" rx="10" fill="#F8FBFF"/>
    <rect x="54" y="60" width="12" height="34" rx="4" fill="#F8FBFF"/>
    <rect x="74" y="52" width="12" height="42" rx="4" fill="#F8FBFF"/>
    <rect x="94" y="52" width="12" height="42" rx="4" fill="#F8FBFF"/>
    <rect x="114" y="60" width="12" height="34" rx="4" fill="#F8FBFF"/>
    <rect x="42" y="118" width="100" height="10" rx="5" fill="#085CB7" opacity="0.4"/>
  </g>
  <text x="264" y="145" fill="#1482E8" font-family="'Trebuchet MS', 'Segoe UI', Arial, sans-serif" font-size="126" font-weight="800" letter-spacing="-4">LanDrop</text>
</svg>
