<svg width="256" height="256" viewBox="0 0 256 256" fill="none" xmlns="http://www.w3.org/2000/svg">
  <defs>
    <linearGradient id="ld-fav-blue" x1="38" y1="28" x2="212" y2="206" gradientUnits="userSpaceOnUse">
      <stop stop-color="#1497FF"/>
      <stop offset="1" stop-color="#0F6FD8"/>
    </linearGradient>
  </defs>
  <rect x="16" y="16" width="224" height="224" rx="52" fill="#F8FBFF"/>
  <rect x="16" y="16" width="224" height="224" rx="52" stroke="#BED6FF" stroke-width="8"/>
  <path d="M128 34L206 88L128 142L50 88L128 34Z" fill="url(#ld-fav-blue)"/>
  <path d="M50 122L128 176L206 122V160L128 214L50 160V122Z" fill="url(#ld-fav-blue)"/>
  <rect x="78" y="106" width="100" height="48" rx="12" fill="#F8FBFF"/>
  <rect x="88" y="94" width="12" height="38" rx="4" fill="#F8FBFF"/>
  <rect x="108" y="84" width="12" height="48" rx="4" fill="#F8FBFF"/>
  <rect x="128" y="84" width="12" height="48" rx="4" fill="#F8FBFF"/>
  <rect x="148" y="94" width="12" height="38" rx="4" fill="#F8FBFF"/>
  <rect x="74" y="162" width="108" height="10" rx="5" fill="#0A62C3" opacity="0.38"/>
</svg>
