<svg width="1280" height="807" viewBox="0 0 1280 807" fill="none" xmlns="http://www.w3.org/2000/svg">
  <rect width="1280" height="807" fill="#F7F9FC"/>

  <g>
    <image x="26" y="16" width="250" height="50" href="../assets/dassiedrop_horizontal_tight.png" preserveAspectRatio="xMinYMin meet"/>
    <text x="290" y="52" fill="#5B6472" font-family="Inter, Manrope, Arial, sans-serif" font-size="24">Share text and files across your network (v1.0.5)</text>
  </g>

  <rect x="36" y="94" width="372" height="58" rx="20" fill="#FFFFFF" stroke="#D7DEEA"/>
  <text x="56" y="131" fill="#6B7484" font-family="Inter, Manrope, Arial, sans-serif" font-size="24">Your name or device name</text>

  <rect x="422" y="94" width="162" height="58" rx="29" fill="#EEF2F7" stroke="#D7DEEA"/>
  <text x="482" y="131" fill="#061A3A" font-family="Inter, Manrope, Arial, sans-serif" font-size="24" font-weight="700">Text</text>

  <rect x="596" y="94" width="162" height="58" rx="29" fill="#163B78"/>
  <text x="653" y="131" fill="#FFFFFF" font-family="Inter, Manrope, Arial, sans-serif" font-size="24" font-weight="700">Files</text>

  <rect x="36" y="176" width="1208" height="648" rx="28" fill="#FFFFFF" stroke="#D7DEEA"/>
  <text x="62" y="224" fill="#061A3A" font-family="Inter, Manrope, Arial, sans-serif" font-size="34" font-weight="700">Share Files</text>
  <text x="1216" y="224" text-anchor="end" fill="#5B6472" font-family="Inter, Manrope, Arial, sans-serif" font-size="24">Uploaded files stay available for 24 hours unless deleted earlier.</text>

  <rect x="62" y="250" width="160" height="58" rx="29" fill="#163B78"/>
  <text x="87" y="287" fill="#FFFFFF" font-family="Inter, Manrope, Arial, sans-serif" font-size="24" font-weight="700">Choose File</text>

  <rect x="236" y="250" width="162" height="58" rx="29" fill="#163B78"/>
  <text x="256" y="287" fill="#FFFFFF" font-family="Inter, Manrope, Arial, sans-serif" font-size="24" font-weight="700">Upload File</text>

  <rect x="68" y="330" width="22" height="22" fill="#FFFFFF" stroke="#8B8B8B" stroke-width="2"/>
  <text x="110" y="350" fill="#5B6472" font-family="Inter, Manrope, Arial, sans-serif" font-size="24">Hidden file</text>

  <rect x="62" y="376" width="1156" height="78" rx="22" fill="#FFFFFF" stroke="#D7DEEA" stroke-width="2" stroke-dasharray="7 5"/>
  <text x="640" y="422" text-anchor="middle" fill="#5B6472" font-family="Inter, Manrope, Arial, sans-serif" font-size="24">Drag and drop a file here</text>

  <rect x="62" y="516" width="1156" height="272" rx="24" fill="#FBFCFE" stroke="#D7DEEA"/>
  <text x="84" y="558" fill="#061A3A" font-family="Inter, Manrope, Arial, sans-serif" font-size="28" font-weight="700">IMG_0690.jpeg</text>

  <rect x="84" y="566" width="514" height="58" rx="20" fill="#FFFFFF" stroke="#D7DEEA"/>
  <text x="102" y="603" fill="#4C5563" font-family="Inter, Manrope, Arial, sans-serif" font-size="22" font-weight="700">Details</text>
  <text x="566" y="604" fill="#163B78" font-family="Inter, Manrope, Arial, sans-serif" font-size="32" font-weight="700">+</text>

  <rect x="84" y="640" width="514" height="116" rx="22" fill="#FFFFFF" stroke="#D7DEEA"/>
  <line x1="84" y1="689.5" x2="598" y2="689.5" stroke="#D7DEEA"/>

  <text x="102" y="671" fill="#4C5563" font-family="Inter, Manrope, Arial, sans-serif" font-size="20" font-weight="700">Size</text>
  <text x="278" y="671" fill="#061A3A" font-family="Inter, Manrope, Arial, sans-serif" font-size="20">6.7 MB</text>

  <text x="102" y="728" fill="#4C5563" font-family="Inter, Manrope, Arial, sans-serif" font-size="20" font-weight="700">LAN link</text>

  <rect x="250" y="704" width="38" height="38" rx="12" fill="#EEF2F7" stroke="#D7DEEA"/>
  <rect x="262" y="714" width="10" height="14" fill="none" stroke="#163B78" stroke-width="2"/>
  <rect x="268" y="708" width="10" height="14" fill="none" stroke="#163B78" stroke-width="2"/>
  <text x="304" y="729" fill="#163B78" font-family="Inter, Manrope, Arial, sans-serif" font-size="18">http://127.0.0.1:8000/s/9X9F</text>

  <rect x="960" y="538" width="148" height="58" rx="29" fill="#163B78"/>
  <text x="991" y="575" fill="#FFFFFF" font-family="Inter, Manrope, Arial, sans-serif" font-size="24" font-weight="700">Download</text>

  <rect x="1120" y="538" width="116" height="58" rx="29" fill="#FFFFFF" stroke="#E7B17A"/>
  <text x="1166" y="575" fill="#B36A2E" font-family="Inter, Manrope, Arial, sans-serif" font-size="24" font-weight="700">Delete</text>
</svg>
