<svg width="1280" height="720" viewBox="0 0 1280 720" fill="none" xmlns="http://www.w3.org/2000/svg">
  <rect width="1280" height="720" fill="#F7FBFF"/>
  <rect x="48" y="48" width="1184" height="624" rx="36" fill="white" stroke="#BED6FF" stroke-width="4"/>
  <text x="96" y="120" fill="#0F2A7A" font-family="Arial, sans-serif" font-size="30" font-weight="700">LAN Text And File Sharing.</text>
  <text x="96" y="158" fill="#45619D" font-family="Arial, sans-serif" font-size="22">Fast, local, simple.</text>
  <rect x="96" y="196" width="320" height="52" rx="18" fill="#FFFFFF" stroke="#BED6FF" stroke-width="2"/>
  <text x="120" y="229" fill="#6A7FAF" font-family="Arial, sans-serif" font-size="22">Office MacBook</text>
  <rect x="96" y="282" width="136" height="52" rx="26" fill="url(#paint0_linear_1_1)"/>
  <rect x="246" y="282" width="136" height="52" rx="26" fill="#EDF5FF" stroke="#BED6FF" stroke-width="2"/>
  <text x="149" y="316" fill="white" font-family="Arial, sans-serif" font-size="22" font-weight="700">Text</text>
  <text x="300" y="316" fill="#0F2A7A" font-family="Arial, sans-serif" font-size="22" font-weight="700">Files</text>
  <rect x="96" y="364" width="1088" height="252" rx="28" fill="#FFFFFF" stroke="#BED6FF" stroke-width="2"/>
  <text x="124" y="418" fill="#0F2A7A" font-family="Arial, sans-serif" font-size="34" font-weight="700">Shared Text</text>
  <text x="790" y="418" fill="#45619D" font-family="Arial, sans-serif" font-size="20">Last update: Today 17:42  •  Auto-delete after 24 hours</text>
  <rect x="124" y="450" width="386" height="52" rx="16" fill="#FFFFFF" stroke="#BED6FF" stroke-width="2"/>
  <text x="146" y="483" fill="#7A8DB7" font-family="Arial, sans-serif" font-size="22">Paste text here</text>
  <rect x="124" y="520" width="930" height="44" rx="12" fill="#FFFFFF"/>
  <rect x="128" y="526" width="16" height="16" fill="white" stroke="#7F7F7F" stroke-width="2"/>
  <text x="164" y="541" fill="#45619D" font-family="Arial, sans-serif" font-size="22">Hidden</text>
  <rect x="124" y="576" width="136" height="52" rx="26" fill="url(#paint1_linear_1_1)"/>
  <text x="161" y="610" fill="white" font-family="Arial, sans-serif" font-size="22" font-weight="700">Just Add</text>
  <rect x="96" y="640" width="1088" height="1" fill="#E8F1FF"/>
  <rect x="124" y="660" width="1032" height="0.5" fill="#E8F1FF"/>
  <rect x="96" y="636" width="1088" height="0.5" fill="#E8F1FF"/>
  <rect x="642" y="470" width="486" height="132" rx="26" fill="#FFFDFA" stroke="#3A3330" stroke-width="4"/>
  <text x="676" y="512" fill="#3D3532" font-family="Arial, sans-serif" font-size="20" font-weight="700">Click to copy...</text>
  <text x="680" y="558" fill="#4B433F" font-family="Courier New, monospace" font-size="22">******** ******** ********</text>
  <text x="680" y="590" fill="#4B433F" font-family="Courier New, monospace" font-size="22">******** ******** ********</text>
  <rect x="520" y="468" width="90" height="156" rx="18" fill="#FBFDFF" stroke="#BED6FF" stroke-width="2"/>
  <text x="540" y="505" fill="#45619D" font-family="Arial, sans-serif" font-size="16" font-weight="700">Saved</text>
  <text x="540" y="530" fill="#0F2A7A" font-family="Arial, sans-serif" font-size="16">Today</text>
  <text x="540" y="564" fill="#45619D" font-family="Arial, sans-serif" font-size="16" font-weight="700">Shared</text>
  <text x="540" y="589" fill="#0F2A7A" font-family="Arial, sans-serif" font-size="16">Carel</text>
  <defs>
    <linearGradient id="paint0_linear_1_1" x1="96" y1="282" x2="232" y2="334" gradientUnits="userSpaceOnUse">
      <stop stop-color="#12C8F4"/>
      <stop offset="1" stop-color="#1497FF"/>
    </linearGradient>
    <linearGradient id="paint1_linear_1_1" x1="124" y1="576" x2="260" y2="628" gradientUnits="userSpaceOnUse">
      <stop stop-color="#12C8F4"/>
      <stop offset="1" stop-color="#1497FF"/>
    </linearGradient>
  </defs>
</svg>
