<svg width="1280" height="720" viewBox="0 0 1280 720" fill="none" xmlns="http://www.w3.org/2000/svg">
  <rect width="1280" height="720" fill="#F7FBFF"/>
  <rect x="48" y="48" width="1184" height="624" rx="36" fill="white" stroke="#BED6FF" stroke-width="4"/>
  <text x="96" y="120" fill="#0F2A7A" font-family="Arial, sans-serif" font-size="30" font-weight="700">LAN Text And File Sharing.</text>
  <text x="96" y="158" fill="#45619D" font-family="Arial, sans-serif" font-size="22">Fast, local, simple.</text>
  <rect x="96" y="196" width="320" height="52" rx="18" fill="#FFFFFF" stroke="#BED6FF" stroke-width="2"/>
  <text x="120" y="229" fill="#6A7FAF" font-family="Arial, sans-serif" font-size="22">Home Windows PC</text>
  <rect x="96" y="282" width="136" height="52" rx="26" fill="#EDF5FF" stroke="#BED6FF" stroke-width="2"/>
  <rect x="246" y="282" width="136" height="52" rx="26" fill="url(#paint0_linear_2_1)"/>
  <text x="149" y="316" fill="#0F2A7A" font-family="Arial, sans-serif" font-size="22" font-weight="700">Text</text>
  <text x="296" y="316" fill="white" font-family="Arial, sans-serif" font-size="22" font-weight="700">Files</text>
  <rect x="96" y="364" width="1088" height="252" rx="28" fill="#FFFFFF" stroke="#BED6FF" stroke-width="2"/>
  <text x="124" y="418" fill="#0F2A7A" font-family="Arial, sans-serif" font-size="34" font-weight="700">Shared Files</text>
  <text x="746" y="418" fill="#45619D" font-family="Arial, sans-serif" font-size="20">Uploaded files stay available for 24 hours unless deleted earlier.</text>
  <rect x="124" y="450" width="178" height="52" rx="26" fill="url(#paint1_linear_2_1)"/>
  <rect x="318" y="450" width="168" height="52" rx="26" fill="url(#paint2_linear_2_1)"/>
  <text x="159" y="484" fill="white" font-family="Arial, sans-serif" font-size="22" font-weight="700">Choose File</text>
  <text x="359" y="484" fill="white" font-family="Arial, sans-serif" font-size="22" font-weight="700">Upload File</text>
  <rect x="124" y="526" width="930" height="72" rx="22" fill="#FBFDFF" stroke="#BED6FF" stroke-width="2" stroke-dasharray="10 10"/>
  <text x="380" y="571" fill="#45619D" font-family="Arial, sans-serif" font-size="24">Drag and drop a file here</text>
  <rect x="124" y="642" width="1032" height="0.5" fill="#E8F1FF"/>
  <rect x="124" y="660" width="1032" height="0.5" fill="#E8F1FF"/>
  <rect x="124" y="620" width="1032" height="0.5" fill="#E8F1FF"/>
  <rect x="124" y="632" width="1032" height="132" rx="22" fill="#FBFDFF" stroke="#BED6FF" stroke-width="2"/>
  <text x="156" y="675" fill="#0F2A7A" font-family="Arial, sans-serif" font-size="26" font-weight="700">family-trip.zip</text>
  <text x="156" y="712" fill="#45619D" font-family="Arial, sans-serif" font-size="18">Shared by Home Windows PC (192.168.1.24)</text>
  <text x="156" y="742" fill="#45619D" font-family="Arial, sans-serif" font-size="18">LAN link: http://192.168.1.24:8000/s/U9UN</text>
  <rect x="900" y="666" width="122" height="44" rx="22" fill="url(#paint3_linear_2_1)"/>
  <rect x="1038" y="666" width="98" height="44" rx="22" fill="#FFFFFF" stroke="#FFCF91" stroke-width="2"/>
  <text x="926" y="694" fill="white" font-family="Arial, sans-serif" font-size="18" font-weight="700">Download</text>
  <text x="1068" y="694" fill="#FF9F1A" font-family="Arial, sans-serif" font-size="18" font-weight="700">Delete</text>
  <defs>
    <linearGradient id="paint0_linear_2_1" x1="246" y1="282" x2="382" y2="334" gradientUnits="userSpaceOnUse">
      <stop stop-color="#12C8F4"/>
      <stop offset="1" stop-color="#1497FF"/>
    </linearGradient>
    <linearGradient id="paint1_linear_2_1" x1="124" y1="450" x2="302" y2="502" gradientUnits="userSpaceOnUse">
      <stop stop-color="#12C8F4"/>
      <stop offset="1" stop-color="#1497FF"/>
    </linearGradient>
    <linearGradient id="paint2_linear_2_1" x1="318" y1="450" x2="486" y2="502" gradientUnits="userSpaceOnUse">
      <stop stop-color="#12C8F4"/>
      <stop offset="1" stop-color="#1497FF"/>
    </linearGradient>
    <linearGradient id="paint3_linear_2_1" x1="900" y1="666" x2="1022" y2="710" gradientUnits="userSpaceOnUse">
      <stop stop-color="#12C8F4"/>
      <stop offset="1" stop-color="#1497FF"/>
    </linearGradient>
  </defs>
</svg>
